HIERARCHY
ROOT hips
{
  OFFSET 0 10.680822821525009 1.3929502295107734
  CHANNELS 6 Xposition Yposition Zposition Yrotation Xrotation Zrotation
  JOINT spine
  {
    OFFSET -7.042017322922631e-31 0.6058489940359625 0
    CHANNELS 3 Yrotation Xrotation Zrotation
    JOINT chest
    {
      OFFSET 0 1.2699794144455032 0
      CHANNELS 3 Yrotation Xrotation Zrotation
      JOINT upperChest
      {
        OFFSET 0 1.217799211677689 0
        CHANNELS 3 Yrotation Xrotation Zrotation
        JOINT neck
        {
          OFFSET 0 1.5248826104153006 0
          CHANNELS 3 Yrotation Xrotation Zrotation
          JOINT head
          {
            OFFSET 0 0.8197772727844447 0
            CHANNELS 3 Yrotation Xrotation Zrotation
            JOINT leftEye
            {
              OFFSET 0.2793952361220866 0.6769952096623495 0.1830357412467788
              CHANNELS 3 Yrotation Xrotation Zrotation
              End Site
              {
                OFFSET 0.2793952361220866 0.6769952096623495 0.1830357412467788
              }
            }
            JOINT rightEye
            {
              OFFSET -0.27939522230689573 0.676995205357064 0.18303631459760622
              CHANNELS 3 Yrotation Xrotation Zrotation
              End Site
              {
                OFFSET -0.27939522230689573 0.676995205357064 0.18303631459760622
              }
            }
          }
        }
        JOINT leftShoulder
        {
          OFFSET 0.41486978509200423 1.1670505408695453 0
          CHANNELS 3 Yrotation Xrotation Zrotation
          JOINT leftUpperArm
          {
            OFFSET 0.9737926108153417 0 0
            CHANNELS 3 Yrotation Xrotation Zrotation
            JOINT leftLowerArm
            {
              OFFSET 2.5269332222665284 0 0
              CHANNELS 3 Yrotation Xrotation Zrotation
              JOINT leftHand
              {
                OFFSET 2.4263782738425914 0 0
                CHANNELS 3 Yrotation Xrotation Zrotation
                JOINT leftIndexProximal
                {
                  OFFSET 0.724320348022514 0.08170607082582437 0.20360061616140124
                  CHANNELS 3 Yrotation Xrotation Zrotation
                  JOINT leftIndexIntermediate
                  {
                    OFFSET 0.36548960630744587 -0.010566596513783999 -0.01414783573280308
                    CHANNELS 3 Yrotation Xrotation Zrotation
                    JOINT leftIndexDistal
                    {
                      OFFSET 0.22502819650693362 -0.007863819831430696 -0.007567681939621526
                      CHANNELS 3 Yrotation Xrotation Zrotation
                      End Site
                      {
                        OFFSET 0.22502819650693362 -0.007863819831430696 -0.007567681939621526
                      }
                    }
                  }
                }
                JOINT leftLittleProximal
                {
                  OFFSET 0.6720322998298205 0.08170601055037707 -0.3230036039466837
                  CHANNELS 3 Yrotation Xrotation Zrotation
                  JOINT leftLittleIntermediate
                  {
                    OFFSET 0.34583592281688713 5.476543019078406e-8 1.3869203337180114e-7
                    CHANNELS 3 Yrotation Xrotation Zrotation
                    JOINT leftLittleDistal
                    {
                      OFFSET 0.19925728062053938 0.003098047439490381 0.0038303983709246925
                      CHANNELS 3 Yrotation Xrotation Zrotation
                      End Site
                      {
                        OFFSET 0.19925728062053938 0.003098047439490381 0.0038303983709246925
                      }
                    }
                  }
                }
                JOINT leftMiddleProximal
                {
                  OFFSET 0.7300436596551069 0.0817073395107144 0.022661722987926763
                  CHANNELS 3 Yrotation Xrotation Zrotation
                  JOINT leftMiddleIntermediate
                  {
                    OFFSET 0.40758254347686607 -0.0000012383587111308714 2.408460318820138e-7
                    CHANNELS 3 Yrotation Xrotation Zrotation
                    JOINT leftMiddleDistal
                    {
                      OFFSET 0.2514490105498507 0.0000013869132886590307 9.738618134136345e-8
                      CHANNELS 3 Yrotation Xrotation Zrotation
                      End Site
                      {
                        OFFSET 0.2514490105498507 0.0000013869132886590307 9.738618134136345e-8
                      }
                    }
                  }
                }
                JOINT leftRingProximal
                {
                  OFFSET 0.7217261161191838 0.08170601902187746 -0.15043395722184966
                  CHANNELS 3 Yrotation Xrotation Zrotation
                  JOINT leftRingIntermediate
                  {
                    OFFSET 0.37808807487521556 0.0000013754022405443322 2.2046919317952884e-7
                    CHANNELS 3 Yrotation Xrotation Zrotation
                    JOINT leftRingDistal
                    {
                      OFFSET 0.21812105442344254 -0.002713483731960231 -0.004991354517454624
                      CHANNELS 3 Yrotation Xrotation Zrotation
                      End Site
                      {
                        OFFSET 0.21812105442344254 -0.002713483731960231 -0.004991354517454624
                      }
                    }
                  }
                }
                JOINT leftThumbProximal
                {
                  OFFSET 0.10793587079521427 -0.1652791240518252 -0.07775251827190094
                  CHANNELS 3 Yrotation Xrotation Zrotation
                  JOINT leftThumbIntermediate
                  {
                    OFFSET 0.40355819082296684 -0.017484006740276614 0.3177776014416309
                    CHANNELS 3 Yrotation Xrotation Zrotation
                    JOINT leftThumbDistal
                    {
                      OFFSET 0.2318764658022603 -0.018510186824293617 0.21396001800186287
                      CHANNELS 3 Yrotation Xrotation Zrotation
                      End Site
                      {
                        OFFSET 0.2318764658022603 -0.018510186824293617 0.21396001800186287
                      }
                    }
                  }
                }
              }
            }
          }
        }
        JOINT rightShoulder
        {
          OFFSET -0.4148697850920044 1.1670505408695453 0
          CHANNELS 3 Yrotation Xrotation Zrotation
          JOINT rightUpperArm
          {
            OFFSET -0.9737926108153414 0 0
            CHANNELS 3 Yrotation Xrotation Zrotation
            JOINT rightLowerArm
            {
              OFFSET -2.5269332222665293 0 0
              CHANNELS 3 Yrotation Xrotation Zrotation
              JOINT rightHand
              {
                OFFSET -2.42637827384259 0 0
                CHANNELS 3 Yrotation Xrotation Zrotation
                JOINT rightIndexProximal
                {
                  OFFSET -0.724320348022514 0.08170607082582437 0.20360061616140124
                  CHANNELS 3 Yrotation Xrotation Zrotation
                  JOINT rightIndexIntermediate
                  {
                    OFFSET -0.36548960630744587 -0.010566596513783999 -0.01414783573280308
                    CHANNELS 3 Yrotation Xrotation Zrotation
                    JOINT rightIndexDistal
                    {
                      OFFSET -0.22502819650693362 -0.007863819831430696 -0.007567681939621526
                      CHANNELS 3 Yrotation Xrotation Zrotation
                      End Site
                      {
                        OFFSET -0.22502819650693362 -0.007863819831430696 -0.007567681939621526
                      }
                    }
                  }
                }
                JOINT rightLittleProximal
                {
                  OFFSET -0.6720322998298205 0.08170601055037707 -0.3230036039466837
                  CHANNELS 3 Yrotation Xrotation Zrotation
                  JOINT rightLittleIntermediate
                  {
                    OFFSET -0.34583592281688713 5.476543019078406e-8 1.3869203337180114e-7
                    CHANNELS 3 Yrotation Xrotation Zrotation
                    JOINT rightLittleDistal
                    {
                      OFFSET -0.19925728062053938 0.003098047439490381 0.0038303983709246925
                      CHANNELS 3 Yrotation Xrotation Zrotation
                      End Site
                      {
                        OFFSET -0.19925728062053938 0.003098047439490381 0.0038303983709246925
                      }
                    }
                  }
                }
                JOINT rightMiddleProximal
                {
                  OFFSET -0.7300436596551069 0.0817073395107144 0.022661722987926763
                  CHANNELS 3 Yrotation Xrotation Zrotation
                  JOINT rightMiddleIntermediate
                  {
                    OFFSET -0.40758254347686607 -0.0000012383587111308714 2.408460318820138e-7
                    CHANNELS 3 Yrotation Xrotation Zrotation
                    JOINT rightMiddleDistal
                    {
                      OFFSET -0.2514490105498507 0.0000013869132886590307 9.738618134136345e-8
                      CHANNELS 3 Yrotation Xrotation Zrotation
                      End Site
                      {
                        OFFSET -0.2514490105498507 0.0000013869132886590307 9.738618134136345e-8
                      }
                    }
                  }
                }
                JOINT rightRingProximal
                {
                  OFFSET -0.7217261161191838 0.08170601902187746 -0.15043395722184966
                  CHANNELS 3 Yrotation Xrotation Zrotation
                  JOINT rightRingIntermediate
                  {
                    OFFSET -0.37808807487521556 0.0000013754022405443322 2.2046919317952884e-7
                    CHANNELS 3 Yrotation Xrotation Zrotation
                    JOINT rightRingDistal
                    {
                      OFFSET -0.21812105442344254 -0.002713483731960231 -0.004991354517454624
                      CHANNELS 3 Yrotation Xrotation Zrotation
                      End Site
                      {
                        OFFSET -0.21812105442344254 -0.002713483731960231 -0.004991354517454624
                      }
                    }
                  }
                }
                JOINT rightThumbProximal
                {
                  OFFSET -0.10793587079521427 -0.1652791240518252 -0.07775251827190094
                  CHANNELS 3 Yrotation Xrotation Zrotation
                  JOINT rightThumbIntermediate
                  {
                    OFFSET -0.40355819082296684 -0.017484006740276614 0.3177776014416309
                    CHANNELS 3 Yrotation Xrotation Zrotation
                    JOINT rightThumbDistal
                    {
                      OFFSET -0.2318764658022603 -0.018510186824293617 0.21396001800186287
                      CHANNELS 3 Yrotation Xrotation Zrotation
                      End Site
                      {
                        OFFSET -0.2318764658022603 -0.018510186824293617 0.21396001800186287
                      }
                    }
                  }
                }
              }
            }
          }
        }
      }
    }
  }
  JOINT leftUpperLeg
  {
    OFFSET 0.8486251390888677 -0.4421577294694363 0
    CHANNELS 3 Yrotation Xrotation Zrotation
    JOINT leftLowerLeg
    {
      OFFSET 0 -4.10147812638609 0
      CHANNELS 3 Yrotation Xrotation Zrotation
      JOINT leftFoot
      {
        OFFSET -0.0002543926476658853 -4.77292286812444 0.007402811231737388
        CHANNELS 3 Yrotation Xrotation Zrotation
        JOINT leftToes
        {
          OFFSET 0 -0.7027875951174846 1.2062924140498823
          CHANNELS 3 Yrotation Xrotation Zrotation
          End Site
          {
            OFFSET 0 -0.7027875951174846 1.2062924140498823
          }
        }
      }
    }
  }
  JOINT rightUpperLeg
  {
    OFFSET -0.8486251390888677 -0.4421577294694363 0
    CHANNELS 3 Yrotation Xrotation Zrotation
    JOINT rightLowerLeg
    {
      OFFSET 0 -4.10147812638609 0
      CHANNELS 3 Yrotation Xrotation Zrotation
      JOINT rightFoot
      {
        OFFSET 0.0002543926476658853 -4.77292286812444 0.007402811231737388
        CHANNELS 3 Yrotation Xrotation Zrotation
        JOINT rightToes
        {
          OFFSET 0 -0.7027875951174846 1.2062924140498823
          CHANNELS 3 Yrotation Xrotation Zrotation
          End Site
          {
            OFFSET 0 -0.7027875951174846 1.2062924140498823
          }
        }
      }
    }
  }
}
MOTION
Frames: 4
Frame Time: 0.03333333333333333
-0.24001049995422363 -6.155907126334579 -0.09595922380685806 7.973218340497544 7.950357271450064 19.29744175673109 -2.666839892671691 14.26463372975309 -2.1603095135133055 -17.43420738036994 55.72830832752843 -18.85908482001677 0 0 0 -4.278738935449742 -24.161764021947548 5.110488137818603 8.96216350563571 -36.885994682735976 -7.505145567209287 0 0 0 0 0 0 5.762993063370039 1.0518220853898155 14.307103576231446 6.173255566045376 -21.939883872868045 -57.761023490317335 -140.10433855155756 -20.827006017065454 14.586141673349001 -33.30472599422911 57.25174753543685 -68.76714387421295 10.767281318348434 6.588380880571978 -23.73843930487154 1.2759923555862078 0.4535365542627645 -18.173790010782913 -0.007597754978832316 0.0000013112285005321248 0.00009816642772010254 7.449539872407712 1.7238943942850167 -42.02653036394927 -5.547808343647072 -1.998398132891414 -30.356324339651906 -0.007699357375978955 5.9141714579784175e-8 0.00009945665692640193 2.1787699166666314 6.274401911320322 -37.786821493982686 -0.6130280251493574 -0.07376851134584256 -12.183733819245681 0.0023997999285003796 3.7800435184458435e-9 -0.00003099949309126598 4.81929414677181 0.7554251738602803 -38.401844985401425 -2.238190265959308 -1.0947684592769162 -31.606083761044854 0.0000020567467520904296 -0.000005989903925387567 0.0000013276993973388638 15.519593774972275 -9.920687754773786 -0.7241062979914734 27.951094997715593 12.89522941426922 9.813896597027522 -0.6435905739343801 -0.28038190527214557 -0.1479170475144582 15.777810036735897 -17.13914489862304 -24.25288772094882 23.057507948077525 -51.27569757269354 45.356751928233116 33.52095767771479 -1.5660637767331123 -1.4448509984027247 -1.9043220033892703 44.41935220289975 -19.39194470568467 10.852807201081587 2.8765086854794713 -4.318239148447928 -0.4635877530903213 0.08551721515143451 6.415131980405478 -0.010099156622314856 -6.596802379750212e-9 0.00013045612070555345 -25.433322197768046 7.381693970348691 -2.455075576484444 -0.9735574968393902 0.06180959543929316 0.08082700282579318 -0.05689525076138824 8.63450980036477e-7 0.000734946061701708 -1.7219332703569812 8.557485353260113 -9.500976656805703 -0.032732690043408154 -0.004984358484175064 1.4741949495792588 -0.03689691684742937 5.988661320840165e-8 0.0004766170014904347 -12.717824640882048 1.6331198938044023 -10.107426920402824 -0.5035654721148466 -0.03395134489661213 8.151240630106797 -0.012897359614015318 -7.037060690492873e-7 0.00016668128732577167 6.714819945102867 11.268696434497976 32.53003657476891 -3.645746404802844 0.1764449559241027 -4.57346216483177 0.7310900658758795 -0.32303548152300166 0.1601220093623415 -84.30805218631525 -68.91631350833485 102.71560401599137 -26.872277735292737 75.20224853216368 -28.52920233213609 3.451160117667735 13.086631755451284 -34.63161367243916 5.155933473982181 -1.3067422376022393 -13.944998506360587 1.9465939683962263 -45.92357499233005 -59.31855140460403 176.08611240487167 43.72731196451411 166.19826026864305 20.83525776107525 7.452656631951867 -19.14097611616968 0.3586009395461168 -26.686130572090523 -2.041029970697905
-0.2590077817440033 -6.150071593192489 -0.1159420758485794 8.048030460885423 8.459962843810365 19.063081326808256 -2.634515343447846 14.198586511369259 -2.078930505658081 -17.06455220719624 55.519877478853154 -18.32470065005461 0 0 0 -4.271656976036782 -24.238342712348786 5.050664860036318 8.832737055134615 -36.731418845012186 -7.507142648409361 0 0 0 0 0 0 6.127506757749231 1.0668485085216002 14.2226934230722 5.218413020884904 -21.98755566574472 -57.48417497991955 -139.4331481744356 -20.613996411541454 14.517094621594428 -34.260834134895596 57.89430998168928 -68.80149909832895 10.813110938729155 6.536500774424592 -23.68458107970914 1.2745743792844002 0.4525079383099259 -18.142726181277595 -0.007597754978832316 0.0000013112285005321248 0.00009816642772010254 7.4290971650211315 1.760698275060347 -42.05956930320518 -5.533669651824705 -1.9883975932239037 -30.27595086019461 -0.007699357375978955 5.9141714579784175e-8 0.00009945665692640193 2.2564237088359094 6.272981691234415 -37.589447271764165 -0.6129703986790976 -0.0737622147599831 -12.182878601272318 0.0023997999285003796 3.7800435184458435e-9 -0.00003099949309126598 4.839552424504212 0.7755692530350589 -38.3003587194129 -2.2242457855963007 -1.0850426447155672 -31.45539704359779 0.0000020567467520904296 -0.000005989903925387567 0.0000013276993973388638 15.35965490373497 -9.852675267180098 -0.6009852046623264 27.616864525417935 12.727133923272936 9.7706960968245 -0.6435905739343801 -0.28038190527214557 -0.1479170475144582 15.688129662365194 -17.045179458473687 -24.154542963357503 23.642215453360173 -51.53692953614858 44.68880403414323 33.6123091703278 -1.6207870709199375 -1.4517535073849748 -2.1437652519034764 44.491400664997606 -19.378115487805225 10.783055780175912 2.814318695237984 -4.294954494263697 -0.46202336527725313 0.08406342380290133 6.3473754982889465 -0.010099156622314856 -6.596802379750212e-9 0.00013045612070555345 -25.40626015590213 7.368622987641173 -2.383278967946127 -0.951815094554029 0.061645684144301396 0.07926928676467478 -0.05689525076138824 8.63450980036477e-7 0.000734946061701708 -1.7002571538525437 8.505299849162805 -9.455523656105841 -0.03772482920081558 -0.004838384867976192 1.41491084288768 -0.03689691684742937 5.988661320840165e-8 0.0004766170014904347 -12.642288088421784 1.6307699959228867 -9.983176471262867 -0.5107092083080772 -0.03300125141366031 8.05984265686946 -0.012897359614015318 -7.037060690492873e-7 0.00016668128732577167 6.467522493956698 11.243628978085235 32.24985132561521 -3.681236104141902 0.19856413520550525 -4.576733518701591 0.7310900658758795 -0.32303548152300166 0.1601220093623415 -84.82518702358797 -68.4998741293396 103.30935561472215 -26.140853505356173 74.56484293398614 -27.749473791718263 3.6601372769865628 13.440031516187629 -34.901970041822025 5.104241515850897 -1.2829411680894236 -13.902240094019035 1.6894162608455248 -47.00814767214945 -58.55810881923952 176.57302438607317 43.538875535297905 166.5503477468363 20.55601618750996 7.5726049990010305 -19.22712289166756 0.3578376174766199 -26.659572926126074 -2.0360282121601716
-0.3019963204860687 -6.138171168235214 -0.15762649476528168 8.179015864099902 9.484043638780372 18.59481297346288 -2.5657115279840084 14.068376975393951 -1.9154393784582657 -16.32439696018089 55.1082190112255 -17.255932184175375 0 0 0 -4.2581633070231675 -24.41204662194235 4.947463165686094 8.61793653570214 -36.40459165080704 -7.56403830001569 0 0 0 0 0 0 6.893683000823313 1.1002576300176332 14.040360789081538 3.1835311940083333 -22.384405565223464 -56.774221818989716 -137.8465703212727 -20.18370591200004 14.353083176867424 -35.62868063277671 59.160887309335145 -68.4349046307634 10.857642468888654 6.4265508228547805 -23.74692141062331 1.2716471697786098 0.4507007101676834 -18.08055993314634 -0.007597754978832316 0.0000013112285005321248 0.00009816642772010254 7.373830933486866 1.8236591308705943 -42.162530466921 -5.505875569943476 -1.9689427925158716 -30.11934713080319 -0.007699357375978955 5.9141714579784175e-8 0.00009945665692640193 2.3557562532382543 6.226107146666545 -37.36936785417755 -0.6147876659224583 -0.07386873645096731 -12.208968042225726 0.0023997999285003796 3.7800435184458435e-9 -0.00003099949309126598 4.834067616715985 0.7740537196016887 -38.18836013447395 -2.200977187034106 -1.0692548607335486 -31.20766094210655 0.0000020567467520904296 -0.000005989903925387567 0.0000013276993973388638 15.239543953340837 -9.541806016030238 -0.39534242053392304 27.455723333593802 12.666022292648638 9.688276561024407 -0.6435905739343801 -0.28038190527214557 -0.1479170475144582 15.505584294653607 -16.854356782876515 -24.005850844800467 24.969812772147247 -52.1495615968518 43.274042646860806 33.642571805341085 -1.716723519033266 -1.4532611770497093 -2.6231106857587276 44.64295512045922 -19.399328886271967 10.674917237094487 2.6961722217656474 -4.311050521757571 -0.4587310165359008 0.08161556548902354 6.210033659216666 -0.010099156622314856 -6.596802379750212e-9 0.00013045612070555345 -25.397484365400913 7.334879370594281 -2.3093532039922784 -0.9078281936395884 0.061651853996488364 0.07588756130665508 -0.05689525076138824 8.63450980036477e-7 0.000734946061701708 -1.6363889241554366 8.401764821098803 -9.397329917046717 -0.047793160826973574 -0.004548560813989129 1.2947905072861345 -0.03689691684742937 5.988661320840165e-8 0.0004766170014904347 -12.552695022754424 1.6200097193258256 -9.835255871686224 -0.5248769733740473 -0.03129781597365672 7.872502253782186 -0.012897359614015318 -7.037060690492873e-7 0.00016668128732577167 5.978520166647653 11.18693142548841 31.69621492834253 -3.7819716565520745 0.26630563230385856 -4.584886485378369 0.7310900658758795 -0.32303548152300166 0.1601220093623415 -85.56473575443957 -67.52785521509793 104.14688576505394 -24.797239216428487 73.17696313737294 -26.29556270671018 4.233500011905685 14.213073232471585 -35.51526611249512 5.060236723512418 -1.170934838926629 -13.804682177825319 1.013313992985602 -49.29119978414092 -56.94754291487574 177.63181902924651 43.14933276374122 167.30139176191884 19.98698791014624 7.855916547337769 -19.510061578811207 0.3604077628043637 -26.69096007337556 -2.0405171935289506
-0.35426947474479675 -6.125762434867294 -0.20219005644321442 8.254126119186362 10.50226709167327 18.159388276757667 -2.4938805530676413 13.937213214184524 -1.756855184681349 -15.602946300576301 54.68680744502701 -16.20921296660849 0 0 0 -4.237742999201913 -24.615459659977876 4.852116524042799 8.480208542541455 -36.025065189163975 -7.712883863259171 0 0 0 0 0 0 7.716066456621124 1.1385670421043639 13.820451093613524 0.89907318001263 -23.042632900386668 -55.83755730503559 -135.76393212412924 -19.765872864469916 14.135541538245032 -36.17456083605513 60.50283313231453 -67.22573991788458 10.911241217602434 6.329465810334167 -23.868295824704557 1.268483334755276 0.4492704351173935 -18.017463915593535 -0.007597754978832316 0.0000013112285005321248 0.00009816642772010254 7.297401113477763 1.8512961211719396 -42.22278267177894 -5.482193642471319 -1.9530154955506451 -29.990024439176466 -0.007699357375978955 5.9141714579784175e-8 0.00009945665692640193 2.420457682735561 6.14953429263462 -37.24581688691325 -0.6147472206898736 -0.07379597219753037 -12.208638170342663 0.0023997999285003796 3.7800435184458435e-9 -0.00003099949309126598 4.764522361355568 0.7081200132039276 -38.082112701465306 -2.182959996074122 -1.0575170800854166 -31.0200726108085 0.0000020567467520904296 -0.000005989903925387567 0.0000013276993973388638 15.227204055844743 -9.149693335401091 -0.26213671442179637 27.615236422680272 12.782003226678423 9.60703177875996 -0.6435905739343801 -0.28038190527214557 -0.1479170475144582 15.282570291823584 -16.666742296197135 -23.96762133580328 26.81718389990381 -52.91877862004934 41.58371935129407 33.217780438000794 -1.7646523710281843 -1.4183551608595817 -3.0908326139776894 44.7195874527291 -19.574538288513136 10.572883304607972 2.5865938907245978 -4.397835824913832 -0.4553650325760936 0.07906677517464662 6.069376086027637 -0.010099156622314856 -6.596802379750212e-9 0.00013045612070555345 -25.38202991873719 7.294826456408697 -2.2667376165496176 -0.862727209160027 0.05918569409740212 0.07233249344518297 -0.05689525076138824 8.63450980036477e-7 0.000734946061701708 -1.590808050566337 8.298591325208129 -9.397095745560714 -0.05807154691080076 -0.0042969318750897606 1.1717736708547877 -0.03689691684742937 5.988661320840165e-8 0.0004766170014904347 -12.491575882608485 1.6057408169131258 -9.745182227415132 -0.5400210589661358 -0.029852903923201245 7.6625524004282175 -0.012897359614015318 -7.037060690492873e-7 0.00016668128732577167 5.491722088045934 11.113309049968159 31.101996862693078 -3.8854920357164446 0.3383589460422655 -4.592655767351001 0.7310900658758795 -0.32303548152300166 0.1601220093623415 -85.67367606014362 -66.21396754286467 104.17278550139291 -23.702870620202678 71.59135946995413 -25.064085876847304 5.217745279276264 15.068125229500055 -36.3756581516218 5.0374253686386545 -1.0075038623500199 -13.744793437886539 0.1035443221488752 -51.72151862594196 -55.17261590788417 178.79754673697897 42.72510655104493 168.10907723146852 19.34321928274817 8.178715480629462 -19.95903418790792 0.36832537693582207 -26.828867958444523 -2.062213460404761
